<svg xmlns="http://www.w3.org/2000/svg" viewBox="0 0 400 400" width="400" height="400">
  <!-- XP Logo (Black Version) -->
  <g fill="#000000">
    <!-- X part -->
    <path d="M150,100 L200,170 L250,100 L320,100 L230,220 L320,340 L250,340 L200,270 L150,340 L80,340 L170,220 L80,100 Z"/>
    <!-- P part -->
    <path d="M280,100 C330,100 370,140 370,190 C370,240 330,280 280,280 L260,280 L260,340 L200,340 L200,100 Z M260,160 L260,220 L280,220 C290,220 300,210 300,190 C300,170 290,160 280,160 Z"/>
  </g>
</svg>